<?xml version="1.0" standalone="no"?>
<!DOCTYPE svg PUBLIC "-//W3C//DTD SVG 20010904//EN"
 "http://www.w3.org/TR/2001/REC-SVG-20010904/DTD/svg10.dtd">
<svg version="1.0" xmlns="http://www.w3.org/2000/svg"
 width="283.000000pt" height="103.000000pt" viewBox="0 0 283.000000 103.000000"
 preserveAspectRatio="xMidYMid meet">
<metadata>
Created by potrace 1.14, written by Peter Selinger 2001-2017
</metadata>
<g transform="translate(0.000000,103.000000) scale(0.100000,-0.100000)"
fill="#000000" stroke="none">
<path d="M452 958 c-5 -7 -15 -31 -21 -53 -9 -35 -16 -43 -53 -57 -42 -15 -44
-15 -85 9 -32 19 -46 22 -61 14 -21 -11 -82 -77 -82 -89 0 -4 11 -25 24 -46
23 -39 23 -41 8 -83 -14 -38 -22 -45 -57 -54 -59 -16 -65 -25 -65 -89 0 -64 6
-73 65 -89 35 -9 43 -16 57 -54 15 -42 15 -44 -8 -83 -13 -21 -24 -42 -24 -46
0 -12 61 -78 82 -89 15 -8 29 -5 61 14 41 24 43 24 85 9 37 -14 44 -22 53 -57
16 -59 25 -65 89 -65 64 0 73 6 89 65 9 35 16 43 53 57 42 15 44 15 85 -9 32
-19 46 -22 61 -14 21 11 82 77 82 89 0 4 -11 25 -24 46 -23 39 -23 41 -8 83
14 38 22 45 57 54 59 16 65 25 65 89 0 64 -6 73 -65 89 -35 9 -43 16 -57 54
-15 42 -15 44 8 83 13 21 24 42 24 46 0 12 -61 78 -82 89 -15 8 -29 5 -61 -14
-41 -24 -43 -24 -85 -9 -37 14 -44 22 -53 57 -16 59 -25 65 -89 65 -34 0 -62
-5 -68 -12z m135 -59 c12 -42 17 -47 67 -68 l54 -22 33 20 c44 27 57 26 91 -6
33 -32 35 -47 7 -92 l-20 -33 22 -54 c21 -50 26 -55 68 -67 l46 -13 0 -54 0
-54 -46 -13 c-42 -12 -47 -17 -68 -67 l-22 -54 20 -33 c27 -44 26 -57 -6 -91
-32 -33 -47 -35 -92 -7 l-33 20 -54 -22 c-50 -21 -55 -26 -67 -68 l-13 -46
-54 0 -54 0 -13 46 c-12 42 -17 47 -67 68 l-54 22 -33 -20 c-46 -28 -60 -26
-97 12 l-31 32 25 44 25 44 -23 53 c-20 49 -25 55 -67 67 l-46 13 0 54 0 54
46 13 c42 12 47 18 67 67 l23 53 -25 44 -25 44 31 32 c37 38 51 40 97 12 l33
-20 54 22 c49 20 55 27 65 63 15 58 15 57 72 54 l51 -3 13 -46z"/>
<path d="M465 781 c-42 -9 -32 -26 13 -22 43 3 55 9 47 22 -7 10 -15 10 -60 0z"/>
<path d="M596 783 c-9 -10 -7 -43 3 -43 11 0 21 39 11 45 -4 2 -10 2 -14 -2z"/>
<path d="M670 735 c-19 -23 -7 -39 13 -17 10 11 14 23 9 26 -5 3 -15 -1 -22
-9z"/>
<path d="M321 695 c-56 -61 -74 -106 -75 -185 0 -48 6 -78 22 -111 42 -86 132
-154 214 -161 52 -4 48 16 -5 23 -124 19 -207 118 -207 249 0 75 21 129 70
177 17 18 30 38 28 44 -2 6 -23 -10 -47 -36z"/>
<path d="M425 681 c-71 -42 -114 -126 -101 -195 4 -20 10 -36 13 -36 3 0 30
14 59 30 66 38 84 72 84 157 0 70 -6 75 -55 44z m35 -56 c0 -61 -19 -95 -68
-123 -35 -20 -41 -20 -46 -6 -12 30 15 97 54 136 21 21 43 38 49 38 6 0 11
-19 11 -45z"/>
<path d="M560 637 c0 -85 18 -119 84 -157 29 -16 56 -30 59 -30 14 0 19 75 8
111 -18 61 -97 139 -141 139 -6 0 -10 -26 -10 -63z m80 -5 c39 -39 66 -106 54
-136 -5 -14 -11 -14 -46 6 -22 13 -46 35 -54 50 -17 32 -19 118 -3 118 6 0 28
-17 49 -38z"/>
<path d="M725 670 c-15 -17 -16 -20 -3 -20 19 0 42 26 30 34 -5 3 -17 -3 -27
-14z"/>
<path d="M768 603 c-10 -3 -18 -9 -18 -14 0 -12 37 -12 45 0 7 12 -5 19 -27
14z"/>
<path d="M500 524 c-11 -12 -10 -18 3 -32 16 -15 18 -15 34 0 13 14 14 20 3
32 -7 9 -16 16 -20 16 -4 0 -13 -7 -20 -16z"/>
<path d="M760 510 c0 -5 11 -10 25 -10 14 0 25 5 25 10 0 6 -11 10 -25 10 -14
0 -25 -4 -25 -10z"/>
<path d="M434 418 c-27 -15 -49 -33 -49 -40 0 -18 61 -56 101 -64 19 -3 49 -3
68 0 36 7 97 44 103 62 6 18 -87 66 -133 68 -29 2 -55 -6 -90 -26z m162 -19
c34 -21 36 -23 18 -36 -50 -36 -138 -36 -188 0 -18 13 -17 15 21 38 50 30 99
29 149 -2z"/>
<path d="M750 431 c0 -10 36 -21 44 -14 3 3 3 10 0 14 -7 12 -44 12 -44 0z"/>
<path d="M725 350 c10 -11 22 -17 27 -14 12 8 -11 34 -30 34 -13 0 -12 -3 3
-20z"/>
<path d="M660 308 c0 -19 26 -42 34 -30 3 5 -3 17 -14 27 -17 15 -20 16 -20 3z"/>
<path d="M590 261 c0 -20 13 -35 23 -25 7 8 -4 44 -14 44 -5 0 -9 -9 -9 -19z"/>
<path d="M1810 515 c0 -218 1 -225 20 -225 18 0 20 7 20 58 0 44 5 63 18 75
10 10 21 17 24 17 3 0 29 -34 58 -75 40 -57 59 -75 77 -75 29 0 29 4 -5 49
-16 20 -45 59 -65 87 l-37 51 61 67 c55 60 59 66 37 66 -17 0 -45 -21 -92 -70
-37 -38 -70 -70 -72 -70 -2 0 -4 61 -4 135 0 128 -1 135 -20 135 -19 0 -20 -7
-20 -225z"/>
<path d="M2110 515 l0 -225 25 0 25 0 0 225 0 225 -25 0 -25 0 0 -225z"/>
<path d="M1225 710 c-48 -11 -74 -28 -91 -62 -35 -67 6 -128 109 -162 97 -33
117 -50 117 -100 0 -81 -181 -85 -197 -5 -4 22 -11 29 -29 29 -31 0 -32 -27
-3 -64 31 -39 76 -59 136 -58 93 1 152 55 139 127 -9 45 -50 78 -132 105 -36
12 -75 31 -85 41 -40 40 -11 105 51 115 47 8 87 -10 108 -46 11 -19 25 -30 40
-30 27 0 27 6 2 47 -30 50 -102 78 -165 63z"/>
<path d="M1574 599 c-145 -41 -132 -296 17 -310 51 -5 79 2 106 25 22 19 25
27 16 37 -9 9 -18 7 -39 -10 -39 -31 -89 -28 -125 8 -17 17 -29 40 -29 55 l0
26 105 0 105 0 0 36 c0 95 -73 156 -156 133z m79 -51 c14 -13 28 -35 31 -50
l6 -28 -86 0 -86 0 6 28 c9 35 50 72 81 72 13 0 35 -10 48 -22z"/>
<path d="M2261 498 c23 -62 48 -131 56 -153 8 -23 12 -54 8 -72 -6 -32 -46
-73 -71 -73 -17 0 -19 -30 -1 -31 33 -3 54 4 73 25 11 12 49 105 84 207 34
101 65 190 68 197 2 7 -5 12 -20 12 -23 0 -28 -10 -62 -121 -21 -66 -40 -118
-44 -114 -4 3 -23 57 -42 118 -33 104 -38 112 -62 115 l-27 3 40 -113z"/>
<path d="M2611 599 c-39 -8 -67 -34 -76 -69 -10 -43 25 -76 105 -100 59 -18
71 -25 76 -47 14 -54 -82 -87 -126 -43 -11 11 -20 25 -20 30 0 6 -11 10 -25
10 -32 0 -32 -12 3 -50 46 -52 148 -58 194 -12 49 49 12 120 -75 142 -82 22
-109 57 -69 93 28 26 77 22 100 -8 21 -26 62 -34 62 -12 0 22 -45 58 -82 66
-18 4 -48 4 -67 0z"/>
</g>
</svg>
